<svg width="900" height="500" aria-label="A chart." style="overflow: hidden;"><defs id="defs"><filter id="_ABSTRACT_RENDERER_ID_0"><feGaussianBlur in="SourceAlpha" stdDeviation="2"></feGaussianBlur><feOffset dx="1" dy="1"></feOffset><feComponentTransfer><feFuncA type="linear" slope="0.1"></feFuncA></feComponentTransfer><feMerge><feMergeNode></feMergeNode><feMergeNode in="SourceGraphic"></feMergeNode></feMerge></filter></defs><rect x="0" y="0" width="900" height="500" stroke="none" stroke-width="0" fill="#ffffff"></rect><g><text text-anchor="start" x="161" y="70" font-family="Roboto" font-size="20" font-weight="bold" stroke="none" stroke-width="0" fill="#a74f58">Récord Negativo 04/09/2017</text><rect x="161" y="53" width="579" height="20" stroke="none" stroke-width="0" fill-opacity="0" fill="#ffffff"></rect></g><g><rect x="542" y="96" width="198" height="42" stroke="none" stroke-width="0" fill-opacity="0" fill="#ffffff"></rect><g column-id="Espacio Usado"><rect x="542" y="96" width="198" height="16" stroke="none" stroke-width="0" fill-opacity="0" fill="#ffffff"></rect><g><text text-anchor="start" x="564" y="109.6" font-family="Roboto" font-size="16" font-weight="bold" stroke="none" stroke-width="0" fill-opacity="0.9" fill="#41484b">Espacio Usado</text></g><circle cx="550" cy="104" r="8" stroke="none" stroke-width="0" fill="#f2134f"></circle></g><g column-id="Espacio Libre"><rect x="542" y="122" width="198" height="16" stroke="none" stroke-width="0" fill-opacity="0" fill="#ffffff"></rect><g><text text-anchor="start" x="564" y="135.6" font-family="Roboto" font-size="16" font-weight="bold" stroke="none" stroke-width="0" fill-opacity="0.9" fill="#41484b">Espacio Libre</text></g><circle cx="550" cy="130" r="8" stroke="none" stroke-width="0" fill="#36bfbf"></circle></g></g><g><path d="M300.05305149526674,297.8913777272559L240.1326287381669,368.22844431813974A154,154,0,0,1,340,97L340,189.4A61.6,61.6,0,0,0,300.05305149526674,297.8913777272559" stroke="#ffffff" stroke-width="1" fill="#36bfbf"></path><text text-anchor="start" x="210.46697822767095" y="217.00592189642353" font-family="Roboto" font-size="16" font-weight="bold" stroke="none" stroke-width="0" fill-opacity="0.9" fill="#ffffff">38.8%</text></g><g><path d="M340,189.4L340,97A154,154,0,1,1,240.1326287381669,368.22844431813974L300.05305149526674,297.8913777272559A61.6,61.6,0,1,0,340,189.4" stroke="#ffffff" stroke-width="1" fill="#f2134f"></path><text text-anchor="start" x="425.53302177232905" y="296.1940781035765" font-family="Roboto" font-size="16" font-weight="bold" stroke="none" stroke-width="0" fill-opacity="0.9" fill="#ffffff">61.2%</text></g><g></g></svg>