<svg width="900" height="500" aria-label="A chart." style="overflow: hidden;"><defs id="defs"><filter id="_ABSTRACT_RENDERER_ID_0"><feGaussianBlur in="SourceAlpha" stdDeviation="2"></feGaussianBlur><feOffset dx="1" dy="1"></feOffset><feComponentTransfer><feFuncA type="linear" slope="0.1"></feFuncA></feComponentTransfer><feMerge><feMergeNode></feMergeNode><feMergeNode in="SourceGraphic"></feMergeNode></feMerge></filter></defs><rect x="0" y="0" width="900" height="500" stroke="none" stroke-width="0" fill="#ffffff"></rect><g><text text-anchor="start" x="161" y="70" font-family="Roboto" font-size="20" font-weight="bold" stroke="none" stroke-width="0" fill="#a74f58">Récord Positivo 19/07/2017</text><rect x="161" y="53" width="579" height="20" stroke="none" stroke-width="0" fill-opacity="0" fill="#ffffff"></rect></g><g><rect x="161" y="96" width="198" height="42" stroke="none" stroke-width="0" fill-opacity="0" fill="#ffffff"></rect><g column-id="Espacio Usado"><rect x="161" y="96" width="198" height="16" stroke="none" stroke-width="0" fill-opacity="0" fill="#ffffff"></rect><g><text text-anchor="start" x="183" y="109.6" font-family="Roboto" font-size="16" font-weight="bold" stroke="none" stroke-width="0" fill-opacity="0.9" fill="#41484b">Espacio Usado</text></g><circle cx="169" cy="104" r="8" stroke="none" stroke-width="0" fill="#f2134f"></circle></g><g column-id="Espacio Libre"><rect x="161" y="122" width="198" height="16" stroke="none" stroke-width="0" fill-opacity="0" fill="#ffffff"></rect><g><text text-anchor="start" x="183" y="135.6" font-family="Roboto" font-size="16" font-weight="bold" stroke="none" stroke-width="0" fill-opacity="0.9" fill="#41484b">Espacio Libre</text></g><circle cx="169" cy="130" r="8" stroke="none" stroke-width="0" fill="#36bfbf"></circle></g></g><g><path d="M561,189.4L561,97A154,154,0,0,1,664.7491291215699,364.80737325198146L602.499651648628,296.52294930079256A61.6,61.6,0,0,0,561,189.4" stroke="#ffffff" stroke-width="1" fill="#f2134f"></path><text text-anchor="start" x="645.8564839363938" y="215.2035775834941" font-family="Roboto" font-size="16" font-weight="bold" stroke="none" stroke-width="0" fill-opacity="0.9" fill="#ffffff">38.2%</text></g><g><path d="M602.499651648628,296.52294930079256L664.7491291215699,364.80737325198146A154,154,0,1,1,560.9999999999999,97L560.9999999999999,189.4A61.6,61.6,0,1,0,602.499651648628,296.52294930079256" stroke="#ffffff" stroke-width="1" fill="#36bfbf"></path><text text-anchor="start" x="432.14351606360617" y="297.996422416506" font-family="Roboto" font-size="16" font-weight="bold" stroke="none" stroke-width="0" fill-opacity="0.9" fill="#ffffff">61.8%</text></g><g></g></svg>